<?xml version="1.0" encoding="utf-8"?>
<!-- Generator: Adobe Illustrator 28.0.0, SVG Export Plug-In . SVG Version: 6.00 Build 0)  -->
<svg version="1.1" id="Layer_1" xmlns="http://www.w3.org/2000/svg" xmlns:xlink="http://www.w3.org/1999/xlink" x="0px" y="0px"
	 viewBox="0 0 1304.2 170" style="enable-background:new 0 0 1304.2 170;" xml:space="preserve">
<style type="text/css">
	.st0{fill:#2C0072;}
	.st1{fill:#FFAE00;}
	.st2{fill:#00A6A0;}
	.st3{fill:#FF002E;}
	.st4{fill:#4A32A3;}
	.st5{fill:#007800;}
	.st6{fill:#FF0000;}
</style>
<g>
	<path class="st0" d="M942.3,0.5c-37.1,0-67.4,30.3-67.4,67.4c0,0,0,24.5,0,24.5c-4.8-1.6-10.6-1.8-15.8-1.6V40.3
		c0.2-35.5-43.1-53.4-67.6-28.1c-7.1-7.2-17-11.7-28-11.7h-56c-15.6,0-29.2,9.2-35.5,22.4C647.8-5.8,599.8-7.3,573.9,20
		C567.1,8.4,554.5,0.5,540,0.5h-55.5c-14.8,0-27.7,8.3-34.4,20.4C437.9,8.2,420.7,0.3,401.7,0.3C381.8,1.1,361.3-4,345.9,12
		c-7.1-7.2-17-11.7-27.9-11.7h-56c-10.7,0-20.5,4.3-27.6,11.3c-7-6.7-16.5-10.8-27-10.8h-55.5c-10.9,0-20.7,4.5-27.8,11.6
		C109.8-3.7,82.2-4.1,67.4,11.6C46.8-9.5,10.2-0.5,1.8,27.9c-3.2,3.1-1.1,95.4-1.7,101.8c-0.3,34.9,43.3,52.5,67.3,27.6
		c14.6,15.6,41.9,15.4,56.3-0.4c7.1,7.4,17.1,12,28.2,12h55.5c10.4,0,19.9-4.1,26.9-10.7c14.4,15.2,41.5,15.1,55.7-0.3
		c14.5,15.5,41.7,15.5,56.3-0.2c7.1,7,16.9,11.4,27.6,11.4h27.9c19.1,0,36.3-8,48.5-20.8c6.7,12.1,19.5,20.3,34.3,20.3H540
		c10,0,19.2-3.8,26.1-10c14.5,14.9,41.3,14.6,55.4-0.7c14.8,15.9,42.6,15.5,56.9-0.9c14.3,16.4,42.1,16.9,57,1
		c14.5,15.6,41.7,15.5,56.3-0.2c7.3,7.4,17.6,11.7,27.9,11.6c0,0,44,0,44,0c9.5,0,18.2-3.4,25-9c14.7,13.4,40.2,12.2,53.6-2.3
		c24,24.9,67.7,7.4,67.4-27.6c0,0,0-62.7,0-62.7C1009.7,30.8,979.4,0.5,942.3,0.5z"/>
	<g>
		<g>
			<path class="st0" d="M1264.8,0.5c-15.7,0-29.2,9.2-35.6,22.5C1217,9.2,1199,0.4,1179.1,0.4c0,0,0,0,0,0c0,0,0,0,0,0l-0.2,0
				l-0.3,0c0,0,0,0-0.1,0c0,0,0,0,0,0c-19.9,0-37.8,8.8-50.1,22.6c-6.3-13.3-19.9-22.5-35.6-22.5c-21.7,0-39.3,17.6-39.3,39.3v90.4
				c0,21.7,17.6,39.3,39.3,39.3c15.8,0,29.4-9.3,35.7-22.7c12.3,13.7,30.1,22.4,50,22.5h0.1v0c0,0,0,0,0,0l0.2,0l0.2,0c0,0,0,0,0,0
				h0.1c19.8,0,37.7-8.7,50-22.5c6.3,13.4,19.9,22.7,35.7,22.7c21.7,0,39.3-17.6,39.3-39.3V39.8C1304.2,18.1,1286.5,0.5,1264.8,0.5z
				"/>
		</g>
	</g>
	<g>
		<g>
			<g>
				<path class="st1" d="M1092.8,149.6c-10.7,0-19.3-8.7-19.3-19.3V39.8c0-10.7,8.7-19.3,19.3-19.3s19.3,8.7,19.3,19.3v90.4
					C1112.2,140.9,1103.5,149.6,1092.8,149.6z"/>
			</g>
		</g>
		<g>
			<g>
				<path class="st1" d="M1264.8,149.6c-10.7,0-19.3-8.7-19.3-19.3V39.8c0-10.7,8.7-19.3,19.3-19.3s19.3,8.7,19.3,19.3v90.4
					C1284.2,140.9,1275.5,149.6,1264.8,149.6z"/>
			</g>
		</g>
		<g>
			<g>
				<path class="st2" d="M1178.6,20.4L1178.6,20.4c10.6,0,19.2,8.7,19.2,19.3s-8.7,19.3-19.3,19.3h0.1c-4.7,0-8.6,3.9-8.6,8.6v16.2
					v2v16.2c0,4.7,3.9,8.6,8.6,8.6h-0.1c10.6,0,19.3,8.7,19.3,19.3c0,10.6-8.7,19.3-19.3,19.3h0.1c-26,0-47.2-21.2-47.2-47.2V85.9
					v-2V67.6C1131.4,41.6,1152.5,20.4,1178.6,20.4z"/>
				<path class="st3" d="M1179.1,20.4L1179.1,20.4c-10.6,0-19.2,8.7-19.2,19.3s8.7,19.3,19.3,19.3h-0.1c4.7,0,8.6,3.9,8.6,8.6v16.2
					v2v16.2c0,4.7-3.9,8.6-8.6,8.6h0.1c-10.6,0-19.3,8.7-19.3,19.3c0,10.6,8.7,19.3,19.3,19.3h-0.1c26,0,47.2-21.2,47.2-47.2V85.9
					v-2V67.6C1226.3,41.6,1205.1,20.4,1179.1,20.4z"/>
			</g>
			<path class="st4" d="M1197.8,130c0-10.5-8.5-19.1-19-19.3c-10.5,0.2-19,8.8-19,19.3c0,10.5,8.5,19.1,19,19.3
				C1189.3,149.1,1197.8,140.6,1197.8,130z"/>
			<path class="st4" d="M1159.9,39.7c0,10.5,8.5,19.1,19,19.3c10.5-0.2,19-8.8,19-19.3s-8.5-19.1-19-19.3
				C1168.3,20.6,1159.9,29.2,1159.9,39.7z"/>
		</g>
	</g>
	<g>
		<g>
			<g>
				<path class="st3" d="M39.4,149.1c-10.7,0-19.3-8.7-19.3-19.3V39.4C20,28.7,28.7,20,39.4,20s19.3,8.7,19.3,19.3v90.4
					C58.7,140.5,50.1,149.1,39.4,149.1z"/>
			</g>
		</g>
		<g>
			<g>
				<path class="st2" d="M95.3,149.1c-10.7,0-19.3-8.7-19.3-19.3V39.4c0-10.7,8.7-19.3,19.3-19.3s19.3,8.7,19.3,19.3v90.4
					C114.6,140.5,106,149.1,95.3,149.1z"/>
			</g>
		</g>
		<g>
			<g>
				<path class="st1" d="M95.3,114.6c-5.2,0-10-2-13.7-5.7L25.7,53c-7.5-7.5-7.5-19.8,0-27.4C29.4,22,34.2,20,39.4,20
					c5.2,0,10,2,13.7,5.7L109,81.6c7.5,7.5,7.5,19.8,0,27.4C105.3,112.6,100.5,114.6,95.3,114.6z"/>
			</g>
		</g>
		<g>
			<g>
				<path class="st1" d="M211.3,59.3h-55.5c-10.6,0-19.2-8.6-19.2-19.2s8.6-19.2,19.2-19.2h55.5c10.6,0,19.2,8.6,19.2,19.2
					S221.9,59.3,211.3,59.3z"/>
			</g>
		</g>
		<g>
			<g>
				<path class="st3" d="M211.3,149.1h-55.5c-10.6,0-19.2-8.6-19.2-19.2s8.6-19.2,19.2-19.2h55.5c10.6,0,19.2,8.6,19.2,19.2
					S221.9,149.1,211.3,149.1z"/>
			</g>
		</g>
		<g>
			<g>
				<path class="st2" d="M155.8,149.1c-10.6,0-19.2-8.6-19.2-19.2V40.1c0-10.6,8.6-19.2,19.2-19.2c10.6,0,19.2,8.6,19.2,19.2v89.8
					C175,140.4,166.4,149.1,155.8,149.1z"/>
			</g>
		</g>
		<g>
			<g>
				<g>
					<path class="st3" d="M190.1,104.3h-34.3c-10.6,0-19.2-8.6-19.2-19.2s8.6-19.2,19.2-19.2h34.3c10.6,0,19.2,8.6,19.2,19.2
						S200.7,104.3,190.1,104.3z"/>
				</g>
			</g>
		</g>
		<g>
			<path class="st3" d="M281.3,39.8c0-10.7-8.7-19.4-19.4-19.4s-19.4,8.7-19.4,19.4v90.6c0,10.7,8.7,19.4,19.4,19.4
				s19.4-8.7,19.4-19.4V39.8z"/>
		</g>
		<path class="st2" d="M317.9,20.4h-56c-10.7,0-19.4,8.7-19.4,19.4s8.7,19.4,19.4,19.4h31.1c-6.5,10.3-18,17.2-31.1,17.2
			c-10.7,0-19.4,8.7-19.4,19.4s8.7,19.4,19.4,19.4c41.6,0,75.4-33.8,75.4-75.4C337.3,29.1,328.6,20.4,317.9,20.4z"/>
		<g>
			<g>
				<path class="st1" d="M317.9,149.8c-6.8,0-12.9-3.4-16.5-9.2l-26.6-43c-5.6-9.1-2.8-21.1,6.3-26.7c4.4-2.7,9.6-3.6,14.6-2.4
					c5,1.2,9.3,4.3,12,8.7l26.6,43c2.7,4.4,3.6,9.6,2.4,14.6c-1.2,5-4.3,9.3-8.7,12C325,148.8,321.5,149.8,317.9,149.8z"/>
			</g>
		</g>
		<path class="st1" d="M839,130.3V40.4c0-9.2-6.1-17.6-15.1-19.5c-12.6-2.8-23.8,6.8-23.8,18.9v90.5h0c0,0,0,0,0,0c0,0,0,0,0,0h0
			v0.3c0,0,0-0.1,0-0.1c0,5,2,9.6,5.2,13c3.5,3.8,8.6,6.2,14.2,6.2c5.6,0,10.7-2.4,14.2-6.2C837,140.1,839,135.4,839,130.3
			L839,130.3C839,130.3,839,130.3,839,130.3L839,130.3z"/>
		<path class="st2" d="M863.5,110.9H839h-6.2h-13.2c-5.1,0-9.7,2-13.2,5.2c-3.8,3.5-6.2,8.6-6.2,14.2c0,10.7,8.7,19.4,19.4,19.4h44
			c10.7,0,19.4-8.7,19.4-19.4C882.9,119.6,874.2,110.9,863.5,110.9z"/>
		<g>
			<path class="st1" d="M726.8,40c0-10.7-8.7-19.4-19.4-19.4c-10.7,0-19.4,8.7-19.4,19.4v90.6c0,10.7,8.7,19.4,19.4,19.4
				c10.7,0,19.4-8.7,19.4-19.4V40z"/>
		</g>
		<path class="st3" d="M763.4,20.6h-56c-10.7,0-19.4,8.7-19.4,19.4s8.7,19.4,19.4,19.4h31.1c-6.5,10.3-18,17.2-31.1,17.2
			c-10.7,0-19.4,8.7-19.4,19.4s8.7,19.4,19.4,19.4c41.6,0,75.4-33.8,75.4-75.4C782.8,29.3,774.1,20.6,763.4,20.6z"/>
		<g>
			<g>
				<path class="st2" d="M763.4,150c-6.8,0-12.9-3.4-16.5-9.2l-26.6-43c-5.6-9.1-2.8-21.1,6.3-26.7c4.4-2.7,9.6-3.6,14.6-2.4
					c5,1.2,9.3,4.3,12,8.7l26.6,43c2.7,4.4,3.6,9.6,2.4,14.6c-1.2,5-4.3,9.3-8.7,12C770.5,149,767,150,763.4,150z"/>
			</g>
		</g>
		<g>
			<g>
				<path class="st1" d="M373.8,149.3c-10.6,0-19.3-8.7-19.3-19.3V39.7c0-10.6,8.7-19.3,19.3-19.3s19.3,8.7,19.3,19.3V130
					C393.1,140.6,384.4,149.3,373.8,149.3z"/>
			</g>
		</g>
		<path class="st3" d="M401.7,20.4h-27.9c-10.6,0-19.3,8.7-19.3,19.3S363.1,59,373.8,59h27.9c4.7,0,8.6,3.9,8.6,8.6v16.2l0,0
			c0,10.6,8.7,19.3,19.3,19.3c10.6,0,19.3-8.7,19.3-19.3l0,0V67.6C448.9,41.5,427.7,20.4,401.7,20.4z"/>
		<path class="st2" d="M429.6,64.5c-10.6,0-19.3,8.7-19.3,19.3v18.3c0,4.7-3.9,8.6-8.6,8.6h-27.9c-10.6,0-19.3,8.7-19.3,19.3
			c0,10.6,8.7,19.3,19.3,19.3h27.9c26,0,47.2-21.2,47.2-47.2V83.8C448.9,73.2,440.2,64.5,429.6,64.5z"/>
		<path class="st2" d="M572,67.8v28.1v34.7c0,10.7,8.7,19.4,19.4,19.4c10.7,0,19.4-8.7,19.4-19.4v-15.3V109V82.6v-6.2v-8.6
			c0-4.8,3.9-8.6,8.6-8.6v0c5.1,0,9.7-2,13.2-5.2c3.8-3.5,6.2-8.6,6.2-14.2c0-5.6-2.4-10.7-6.2-14.2c-3.5-3.2-8.1-5.2-13.2-5.2v0
			c0,0,0,0,0,0c0,0,0,0,0,0v0C593.3,20.3,572,41.6,572,67.8z"/>
		<path class="st3" d="M628.1,115.2h-17.3h-6.2h-13.2c-5.1,0-9.7-2-13.2-5.2c-3.8-3.5-6.2-8.6-6.2-14.2c0-5.6,2.4-10.7,6.2-14.2
			c3.5-3.2,8.1-5.2,13.2-5.2h13.2h6.2h17.3h6.2h13.2c5.1,0,9.7,2,13.2,5.2c3.8,3.5,6.2,8.6,6.2,14.2c0,5.6-2.4,10.7-6.2,14.2
			c-3.5,3.2-8.1,5.2-13.2,5.2h-13.2H628.1z"/>
		<path class="st1" d="M619.5,20.3L619.5,20.3C619.5,20.3,619.5,20.3,619.5,20.3C619.5,20.3,619.5,20.3,619.5,20.3L619.5,20.3
			c-5.1,0-9.7,2-13.2,5.2c-3.8,3.5-6.2,8.6-6.2,14.2c0,5.6,2.4,10.7,6.2,14.2c3.5,3.2,8.1,5.2,13.2,5.2v0c4.8,0,8.6,3.9,8.6,8.6v8.6
			v6.2V109v6.2v15.3c0,10.7,8.7,19.4,19.4,19.4c10.7,0,19.4-8.7,19.4-19.4V95.8V67.8C667,41.6,645.7,20.3,619.5,20.3z"/>
		<g>
			<g>
				<path class="st3" d="M539.9,59h-55.5c-10.6,0-19.2-8.6-19.2-19.2s8.6-19.2,19.2-19.2h55.5c10.6,0,19.2,8.6,19.2,19.2
					S550.5,59,539.9,59z"/>
			</g>
		</g>
		<g>
			<g>
				<path class="st2" d="M539.9,148.8h-55.5c-10.6,0-19.2-8.6-19.2-19.2c0-10.6,8.6-19.2,19.2-19.2h55.5c10.6,0,19.2,8.6,19.2,19.2
					C559.2,140.2,550.5,148.8,539.9,148.8z"/>
			</g>
		</g>
		<g>
			<g>
				<path class="st1" d="M484.5,148.8c-10.6,0-19.2-8.6-19.2-19.2V39.8c0-10.6,8.6-19.2,19.2-19.2c10.6,0,19.2,8.6,19.2,19.2v89.8
					C503.7,140.2,495,148.8,484.5,148.8z"/>
			</g>
		</g>
		<g>
			<g>
				<g>
					<path class="st2" d="M518.8,104h-34.3c-10.6,0-19.2-8.6-19.2-19.2s8.6-19.2,19.2-19.2h34.3c10.6,0,19.2,8.6,19.2,19.2
						S529.3,104,518.8,104z"/>
				</g>
			</g>
		</g>
		<path class="st2" d="M894.7,67.8v28.1v34.7c0,10.7,8.7,19.4,19.4,19.4c10.7,0,19.4-8.7,19.4-19.4v-15.3V109V82.6v-6.2v-8.6
			c0-4.8,3.9-8.6,8.6-8.6v0c5.1,0,9.7-2,13.2-5.2c3.8-3.5,6.2-8.6,6.2-14.2c0-5.6-2.4-10.7-6.2-14.2c-3.5-3.2-8.1-5.2-13.2-5.2v0
			c0,0,0,0,0,0c0,0,0,0,0,0v0C916,20.3,894.7,41.6,894.7,67.8z"/>
		<path class="st1" d="M950.8,115.2h-17.3h-6.2h-13.2c-5.1,0-9.7-2-13.2-5.2c-3.8-3.5-6.2-8.6-6.2-14.2c0-5.6,2.4-10.7,6.2-14.2
			c3.5-3.2,8.1-5.2,13.2-5.2h13.2h6.2h17.3h6.2h13.2c5.1,0,9.7,2,13.2,5.2c3.8,3.5,6.2,8.6,6.2,14.2c0,5.6-2.4,10.7-6.2,14.2
			c-3.5,3.2-8.1,5.2-13.2,5.2H957H950.8z"/>
		<path class="st3" d="M942.2,20.3L942.2,20.3C942.2,20.3,942.2,20.3,942.2,20.3C942.2,20.3,942.2,20.3,942.2,20.3L942.2,20.3
			c-5.1,0-9.7,2-13.2,5.2c-3.8,3.5-6.2,8.6-6.2,14.2c0,5.6,2.4,10.7,6.2,14.2c3.5,3.2,8.1,5.2,13.2,5.2v0c4.8,0,8.6,3.9,8.6,8.6v8.6
			v6.2V109v6.2v15.3c0,10.7,8.7,19.4,19.4,19.4c10.7,0,19.4-8.7,19.4-19.4V95.8V67.8C989.6,41.6,968.4,20.3,942.2,20.3z"/>
		<path class="st4" d="M136.6,129.9c0,10.6,8.6,19.2,19.2,19.2c10.6,0,19.2-8.6,19.2-19.2v-19.2h-19.2
			C145.2,110.7,136.6,119.3,136.6,129.9z"/>
		<path class="st4" d="M136.6,85.1c0,10.6,8.6,19.2,19.2,19.2H175V65.9h-19.2C145.2,65.9,136.6,74.5,136.6,85.1z"/>
		<path class="st4" d="M274.8,97.6c-5.6-9.1-2.8-21.1,6.3-26.7c0,0,0.1,0,0.1-0.1v0c-5.6,3.5-12.3,5.6-19.4,5.6
			c-10.7,0-19.4,8.7-19.4,19.4c0,10.7,8.7,19.4,19.4,19.4c6.7,0,13.2-0.9,19.4-2.5V108L274.8,97.6z"/>
		<path class="st4" d="M261.9,59.1h19.4V39.8c0-10.7-8.7-19.4-19.4-19.4c-10.7,0-19.4,8.7-19.4,19.4S251.2,59.1,261.9,59.1z"/>
		<path class="st5" d="M295.8,68.5c-5-1.2-10.1-0.4-14.5,2.3V108l2.4,3.9c12.7-3.9,24-11,33-20.4l-8.8-14.3
			C305.1,72.8,300.8,69.7,295.8,68.5z"/>
		<path class="st5" d="M274.8,97.6l6.4,10.4V70.9c0,0-0.1,0-0.1,0.1C272,76.5,269.2,88.5,274.8,97.6z"/>
		<path class="st4" d="M429.6,64.5c-10.6,0-19.3,8.7-19.3,19.3c0,10.6,8.7,19.3,19.3,19.3c10.6,0,19.3-8.7,19.3-19.3
			C448.9,73.2,440.2,64.5,429.6,64.5z"/>
		<path class="st4" d="M610.9,82.6v-6.2h0h-6.2h-13.2c-5.1,0-9.7,2-13.2,5.2c-3.8,3.5-6.2,8.6-6.2,14.2c0,5.6,2.4,10.7,6.2,14.2
			c3.5,3.2,8.1,5.2,13.2,5.2h13.2h6.2h0V109V82.6z"/>
		<path class="st4" d="M929,25.5c-3.8,3.5-6.2,8.6-6.2,14.2s2.4,10.7,6.2,14.2c3.5,3.2,8.1,5.2,13.2,5.2v0c0,0,0,0,0,0s0,0,0,0v0
			c5.1,0,9.7-2,13.2-5.2c3.8-3.5,6.2-8.6,6.2-14.2s-2.4-10.7-6.2-14.2c-3.5-3.2-8.1-5.2-13.2-5.2v0h0c0,0,0,0,0,0v0
			C937.1,20.3,932.5,22.3,929,25.5z"/>
		<path class="st4" d="M753.3,77.5c-2.7-4.4-7-7.5-12-8.7c-5-1.2-10.1-0.4-14.5,2.3c0,0-0.1,0-0.1,0.1c-9.1,5.6-11.9,17.6-6.3,26.7
			l6.4,10.4l2.4,3.9c12.7-3.9,24-11,33-20.4L753.3,77.5z"/>
		<g>
			<path class="st6" d="M43.3,20.4C43.3,20.4,43.3,20.4,43.3,20.4c-0.6-0.1-1.1-0.2-1.7-0.3c-0.1,0-0.1,0-0.2,0
				c-0.6-0.1-1.3-0.1-2-0.1s-1.3,0-2,0.1c-0.1,0-0.2,0-0.2,0c-0.6,0.1-1.1,0.1-1.7,0.3c0,0,0,0,0,0c-5,1-9.3,4-12,8
				c0,0-0.1,0.1-0.1,0.1c-0.3,0.4-0.5,0.8-0.7,1.2c-0.1,0.1-0.2,0.3-0.3,0.4c-0.2,0.3-0.3,0.7-0.5,1c-0.1,0.2-0.2,0.5-0.3,0.7
				c-0.1,0.2-0.2,0.5-0.3,0.8c-0.1,0.4-0.3,0.7-0.4,1.1c0,0.2-0.1,0.3-0.1,0.5c-0.1,0.5-0.2,0.9-0.3,1.4c0,0,0,0.1,0,0.1
				C19.3,41.8,21,48.3,25.7,53l33,33V39.3C58.7,30,52.1,22.2,43.3,20.4z"/>
			<path class="st5" d="M95.3,114.5c5.2,0,10-2,13.7-5.7c7.5-7.5,7.5-19.8,0-27.4l-33-33v54.7l5.7,5.7
				C85.3,112.5,90.1,114.5,95.3,114.5z"/>
			<path class="st5" d="M155.8,59.3H175V40.1c0-10.6-8.6-19.2-19.2-19.2c-10.6,0-19.2,8.6-19.2,19.2
				C136.6,50.7,145.2,59.3,155.8,59.3z"/>
			<path class="st6" d="M373.8,59h19.3V39.7c0-10.6-8.7-19.3-19.3-19.3h0c-10.6,0-19.3,8.7-19.3,19.3S363.1,59,373.8,59z"/>
			<path class="st5" d="M373.8,149.3c10.6,0,19.3-8.7,19.3-19.3v-19.3h-19.3c-10.6,0-19.3,8.7-19.3,19.3
				C354.4,140.6,363.1,149.3,373.8,149.3z"/>
			<path class="st6" d="M484.5,59h19.2V39.8c0-10.6-8.6-19.2-19.2-19.2c-10.6,0-19.2,8.6-19.2,19.2C465.3,50.4,473.9,59,484.5,59z"
				/>
			<path class="st5" d="M465.3,129.6c0,10.6,8.6,19.2,19.2,19.2c10.6,0,19.2-8.6,19.2-19.2v-19.2h-19.2
				C473.9,110.4,465.3,119,465.3,129.6z"/>
			<path class="st5" d="M465.3,84.8c0,10.6,8.6,19.2,19.2,19.2h19.2V65.6h-19.2C473.9,65.6,465.3,74.2,465.3,84.8z"/>
			<path class="st5" d="M606.3,25.5c-3.8,3.5-6.2,8.6-6.2,14.2s2.4,10.7,6.2,14.2c3.5,3.2,8.1,5.2,13.2,5.2v0c0,0,0,0,0,0s0,0,0,0v0
				c5.1,0,9.7-2,13.2-5.2c3.8-3.5,6.2-8.6,6.2-14.2s-2.4-10.7-6.2-14.2c-3.5-3.2-8.1-5.2-13.2-5.2v0h0c0,0,0,0,0,0v0
				C614.4,20.3,609.8,22.3,606.3,25.5z"/>
			<path class="st6" d="M647.5,76.4h-13.2h-6.2h0v6.2V109v6.2h0h6.2h13.2c5.1,0,9.7-2,13.2-5.2c3.8-3.5,6.2-8.6,6.2-14.2
				c0-5.6-2.4-10.7-6.2-14.2C657.3,78.4,652.6,76.4,647.5,76.4z"/>
			<path class="st6" d="M720.3,97.8c-5.6-9.1-2.8-21.1,6.3-26.7c0,0,0.1,0,0.1-0.1v0c-5.6,3.5-12.3,5.6-19.4,5.6
				c-10.7,0-19.4,8.7-19.4,19.4c0,10.7,8.7,19.4,19.4,19.4c6.7,0,13.2-0.9,19.4-2.5v-4.6L720.3,97.8z"/>
			<path class="st6" d="M707.4,59.4h19.4V40c0-10.7-8.7-19.4-19.4-19.4c-4,0-7.7,1.2-10.8,3.3c-1,0.7-2,1.5-2.9,2.4
				c-1.3,1.3-2.4,2.8-3.3,4.5c-0.6,1.1-1.1,2.3-1.5,3.5c-0.6,1.8-0.9,3.8-0.9,5.8C688,50.7,696.7,59.4,707.4,59.4z"/>
			<path class="st5" d="M839,130.3L839,130.3C839,130.3,839,130.3,839,130.3L839,130.3l0-19.4h0h-6.2h-13.2c-5.1,0-9.7,2-13.2,5.2
				c-3.8,3.5-6.2,8.6-6.2,14.2v0c0,0.1,0,0.2,0,0.4c0,1.7,0.3,3.4,0.7,5c0,0.1,0,0.2,0.1,0.3c0.1,0.4,0.3,0.8,0.4,1.1
				c0.1,0.2,0.1,0.4,0.2,0.6c0.1,0.3,0.3,0.7,0.5,1c0.1,0.2,0.2,0.5,0.3,0.7c0.2,0.3,0.3,0.6,0.5,0.9c0.1,0.2,0.3,0.5,0.4,0.7
				c0.2,0.3,0.4,0.5,0.6,0.8c0.2,0.2,0.3,0.5,0.5,0.7c0.2,0.3,0.4,0.5,0.6,0.7c0.2,0.2,0.4,0.4,0.6,0.6c0.3,0.3,0.6,0.6,0.8,0.8
				c0.2,0.2,0.4,0.3,0.6,0.5c0.3,0.3,0.6,0.5,0.9,0.7c0.2,0.1,0.4,0.3,0.6,0.4c0.3,0.2,0.7,0.4,1,0.6c0.2,0.1,0.4,0.3,0.6,0.4
				c0.3,0.2,0.7,0.4,1,0.5c0.2,0.1,0.5,0.2,0.7,0.3c0.4,0.2,0.7,0.3,1.1,0.4c0.2,0.1,0.5,0.2,0.7,0.3c0.4,0.1,0.8,0.2,1.2,0.3
				c0.2,0.1,0.5,0.1,0.7,0.2c0.4,0.1,0.9,0.1,1.3,0.2c0.2,0,0.4,0.1,0.7,0.1c0.6,0.1,1.3,0.1,2,0.1c0,0,0,0,0.1,0h0
				c5.6,0,10.7-2.4,14.2-6.2C837,140.1,839,135.4,839,130.3z"/>
			<path class="st5" d="M933.5,82.6v-6.2h0h-6.2h-13.2c-5.1,0-9.7,2-13.2,5.2c-3.8,3.5-6.2,8.6-6.2,14.2c0,5.6,2.4,10.7,6.2,14.2
				c3.5,3.2,8.1,5.2,13.2,5.2h13.2h6.2h0V109V82.6z"/>
			<path class="st6" d="M970.2,76.4H957h-6.2h0v6.2V109v6.2h0h6.2h13.2c5.1,0,9.7-2,13.2-5.2c3.8-3.5,6.2-8.6,6.2-14.2
				c0-5.6-2.4-10.7-6.2-14.2C980,78.4,975.3,76.4,970.2,76.4z"/>
		</g>
	</g>
</g>
</svg>
