<?xml version="1.0" encoding="utf-8"?>
<!-- Generator: Adobe Illustrator 28.0.0, SVG Export Plug-In . SVG Version: 6.00 Build 0)  -->
<svg version="1.1" id="Layer_1" xmlns="http://www.w3.org/2000/svg" xmlns:xlink="http://www.w3.org/1999/xlink" x="0px" y="0px"
	 viewBox="0 0 990.7 138.5" style="enable-background:new 0 0 990.7 138.5;" xml:space="preserve">
<style type="text/css">
	.st0{fill:#00ACA8;}
	.st1{fill:#FF323D;}
	.st2{fill:#FFBB01;}
</style>
<g>
	<g>
		<path class="st0" d="M80.9,136h-3.3c-4.2,0-6.5-1.7-7.7-3.2c-1.2-1.5-2.4-4.1-1.4-8.2l5.5-24.1H59.4l-6.1,26.9
			c-1.2,5.4-5.1,8.5-10.7,8.5h-3.3c-4.2,0-6.5-1.7-7.7-3.2c-1.2-1.5-2.4-4.1-1.4-8.2l5.5-24.1h-7.3c-6.3,0-10.1-3.8-10.1-10.1v-1.8
			c0-6.3,3.8-10.1,10.1-10.1h12.2L44.8,60h-9.1c-6.3,0-10.1-3.8-10.1-10.1v-1.8c0-6.3,3.8-10.1,10.1-10.1h14.2l6.1-26.9
			c1.2-5.4,5.1-8.5,10.7-8.5H70c4.2,0,6.5,1.7,7.7,3.2c1.2,1.5,2.4,4.1,1.4,8.2L73.6,38h14.6l6.1-26.9c1.2-5.4,5.1-8.5,10.7-8.5h3.3
			c4.2,0,6.5,1.7,7.7,3.2c1.2,1.5,2.4,4.1,1.4,8.2L112,38h7.3c6.3,0,10.1,3.8,10.1,10.1v1.8c0,6.3-3.8,10.1-10.1,10.1h-12.2
			l-4.2,18.6h9.1c6.3,0,10.1,3.8,10.1,10.1v1.8c0,6.3-3.8,10.1-10.1,10.1H97.8l-6.1,26.9C90.5,132.9,86.6,136,80.9,136z M55,95h25.9
			l-7,30.8c-0.3,1.6-0.2,2.8,0.4,3.6c0.7,0.9,2.2,1.1,3.3,1.1h3.3c3.1,0,4.7-1.3,5.3-4.2L93.3,95H112c3.2,0,4.5-1.3,4.5-4.5v-1.8
			c0-3.2-1.3-4.5-4.5-4.5H95.9l6.7-29.6h16.6c3.2,0,4.5-1.3,4.5-4.5v-1.8c0-3.2-1.3-4.5-4.5-4.5h-14.2l7-30.8
			c0.3-1.6,0.2-2.8-0.4-3.6c-0.7-0.9-2.2-1.1-3.3-1.1h-3.3c-3.1,0-4.7,1.3-5.3,4.2l-7.1,31.2h-26l7-30.8c0.3-1.6,0.2-2.8-0.4-3.6
			c-0.7-0.9-2.2-1.1-3.3-1.1h-3.3c-3.1,0-4.7,1.3-5.3,4.2l-7.1,31.2H35.6c-3.2,0-4.5,1.3-4.5,4.5v1.8c0,3.2,1.3,4.5,4.5,4.5h16.1
			l-6.7,29.6H28.3c-3.2,0-4.5,1.3-4.5,4.5v1.8c0,3.2,1.3,4.5,4.5,4.5h14.2l-7,30.8c-0.3,1.6-0.2,2.8,0.4,3.6
			c0.7,0.9,2.2,1.1,3.3,1.1h3.3c3.1,0,4.7-1.3,5.3-4.2L55,95z M83.3,84.1H57.6l6.7-29.6h25.8L83.3,84.1z M64.5,78.6h14.4L83.1,60
			H68.7L64.5,78.6z"/>
	</g>
	<g>
		<path class="st1" d="M197.7,136h-6.6c-5.4,0-9.2-2.8-10.9-8L159.7,67v59c0,6.3-3.8,10.1-10.1,10.1h-4.8c-6.3,0-10.1-3.8-10.1-10.1
			V12.6c0-6.3,3.8-10.1,10.1-10.1h7.7c5.4,0,9.2,2.8,10.9,8l19.5,57.2V12.6c0-6.3,3.8-10.1,10.1-10.1h4.8c6.3,0,10.1,3.8,10.1,10.1
			v113.3C207.8,132.2,204,136,197.7,136z M154.2,33.2l31.3,93.1c0.9,2.9,2.6,4.1,5.6,4.1h6.6c3.2,0,4.5-1.3,4.5-4.5V12.6
			c0-3.2-1.3-4.5-4.5-4.5H193c-3.2,0-4.5,1.3-4.5,4.5v88.5l-30.2-88.9c-0.9-2.9-2.6-4.2-5.6-4.2h-7.7c-3.2,0-4.5,1.3-4.5,4.5v113.3
			c0,3.2,1.3,4.5,4.5,4.5h4.8c3.2,0,4.5-1.3,4.5-4.5V33.2z"/>
	</g>
	<g>
		<path class="st0" d="M272.6,136h-42c-6.3,0-10.1-3.8-10.1-10.1V12.6c0-6.3,3.8-10.1,10.1-10.1h41.5c6.3,0,10.1,3.8,10.1,10.1v4
			c0,6.3-3.8,10.1-10.1,10.1h-24.8v29.6h19.2c6.3,0,10.1,3.8,10.1,10.1v4c0,6.3-3.8,10.1-10.1,10.1h-19.2v31.4h25.4
			c6.3,0,10.1,3.8,10.1,10.1v4C282.7,132.2,278.9,136,272.6,136z M230.6,8.1c-3.2,0-4.5,1.3-4.5,4.5v113.3c0,3.2,1.3,4.5,4.5,4.5h42
			c3.2,0,4.5-1.3,4.5-4.5v-4c0-3.2-1.3-4.5-4.5-4.5h-30.9V74.9h24.7c3.2,0,4.5-1.3,4.5-4.5v-4c0-3.2-1.3-4.5-4.5-4.5h-24.7V21.2
			h30.4c3.2,0,4.5-1.3,4.5-4.5v-4c0-3.2-1.3-4.5-4.5-4.5H230.6z"/>
	</g>
	<g>
		<path class="st2" d="M354.3,136h-6.4c-5.5,0-9.3-2.8-10.9-8l-13.6-43h-6v40.9c0,6.3-3.8,10.1-10.1,10.1h-6.6
			c-6.3,0-10.1-3.8-10.1-10.1V12.6c0-6.3,3.8-10.1,10.1-10.1h25.8c28.9,0,34.9,16.2,34.9,29.8v22.8c0,11.8-4.6,20.4-13.3,25.2
			l14.8,43.6c1.1,3.3,0.8,6.3-0.8,8.6C360.5,134.8,357.8,136,354.3,136z M311.9,79.5h15.6l14.9,46.9c0.9,3,2.5,4.1,5.6,4.1h6.4
			c1.6,0,2.8-0.4,3.4-1.2c0.6-0.8,0.6-2,0.1-3.6l-16.3-48.3l2.3-1c8.2-3.6,12.2-10.5,12.2-21.2V32.4c0-16.3-9.6-24.3-29.4-24.3
			h-25.8c-3.2,0-4.5,1.3-4.5,4.5v113.3c0,3.2,1.3,4.5,4.5,4.5h6.6c3.2,0,4.5-1.3,4.5-4.5V79.5z M325.8,66.7h-13.9V21.2h13.9
			c9.6,0,14.5,4.9,14.5,14.5v16.6C340.3,61.9,335.4,66.7,325.8,66.7z M317.4,61.2h8.4c6.5,0,8.9-2.4,8.9-8.9V35.6
			c0-6.5-2.4-8.9-8.9-8.9h-8.4V61.2z"/>
	</g>
	<g>
		<path class="st1" d="M408.6,136h-25.4c-6.3,0-10.1-3.8-10.1-10.1V12.6c0-6.3,3.8-10.1,10.1-10.1h25.4c28.9,0,34.9,16.2,34.9,29.8
			v73.8C443.5,119.8,437.4,136,408.6,136z M383.2,8.1c-3.2,0-4.5,1.3-4.5,4.5v113.3c0,3.2,1.3,4.5,4.5,4.5h25.4
			c19.8,0,29.4-7.9,29.4-24.3V32.4c0-16.3-9.6-24.3-29.4-24.3H383.2z M407.9,117.4h-13.5V21.2h13.5c9.6,0,14.5,4.9,14.5,14.5v67.3
			C422.3,112.5,417.4,117.4,407.9,117.4z M399.8,111.8h8c6.5,0,8.9-2.4,8.9-8.9V35.6c0-6.5-2.4-8.9-8.9-8.9h-8V111.8z"/>
	</g>
	<g>
		<path class="st0" d="M507.6,136h-42c-6.3,0-10.1-3.8-10.1-10.1V12.6c0-6.3,3.8-10.1,10.1-10.1h41.5c6.3,0,10.1,3.8,10.1,10.1v4
			c0,6.3-3.8,10.1-10.1,10.1h-24.8v29.6h19.2c6.3,0,10.1,3.8,10.1,10.1v4c0,6.3-3.8,10.1-10.1,10.1h-19.2v31.4h25.4
			c6.3,0,10.1,3.8,10.1,10.1v4C517.7,132.2,513.9,136,507.6,136z M465.6,8.1c-3.2,0-4.5,1.3-4.5,4.5v113.3c0,3.2,1.3,4.5,4.5,4.5h42
			c3.2,0,4.5-1.3,4.5-4.5v-4c0-3.2-1.3-4.5-4.5-4.5h-30.9V74.9h24.7c3.2,0,4.5-1.3,4.5-4.5v-4c0-3.2-1.3-4.5-4.5-4.5h-24.7V21.2
			h30.4c3.2,0,4.5-1.3,4.5-4.5v-4c0-3.2-1.3-4.5-4.5-4.5H465.6z"/>
	</g>
	<g>
		<path class="st2" d="M587.3,136h-6.8c-5.8,0-9.7-3.3-10.6-9.1l-3.1-19.4h-18.7l-3.1,19.4c-0.9,5.8-4.8,9.1-10.6,9.1h-5.7
			c-4.2,0-6.5-1.7-7.6-3.1c-1.2-1.4-2.4-3.9-1.7-8.1l21-113.5c0.9-5.5,4.9-8.8,10.8-8.8h13.2c5.8,0,9.8,3.3,10.8,8.9l21.4,113.4
			c0.7,4.2-0.5,6.7-1.6,8.1C593.8,134.3,591.5,136,587.3,136z M543.5,102h28.1l3.8,24.1c0.5,3.1,2,4.4,5.1,4.4h6.8
			c1.1,0,2.7-0.2,3.4-1.1c0.7-0.9,0.7-2.4,0.5-3.5L569.8,12.4c-0.5-3-2.2-4.3-5.3-4.3h-13.2c-3.1,0-4.8,1.4-5.3,4.3l-21,113.5
			c-0.2,1.1-0.3,2.6,0.5,3.5c0.7,0.9,2.3,1.1,3.4,1.1h5.7c3.1,0,4.6-1.3,5.1-4.4L543.5,102z M569.7,89.9h-24.4l12.2-77.3L569.7,89.9
			z M551.8,84.4h11.4l-5.7-36.3L551.8,84.4z"/>
	</g>
	<g>
		<path class="st1" d="M666.8,136h-6.4c-5.5,0-9.3-2.8-10.9-8l-13.6-43h-6v40.9c0,6.3-3.8,10.1-10.1,10.1h-6.6
			c-6.3,0-10.1-3.8-10.1-10.1V12.6c0-6.3,3.8-10.1,10.1-10.1H639c28.9,0,34.9,16.2,34.9,29.8v22.8c0,11.8-4.6,20.4-13.3,25.2
			l14.8,43.6c1.1,3.3,0.8,6.3-0.8,8.6C673,134.8,670.2,136,666.8,136z M624.4,79.5h15.6l14.9,46.9c0.9,3,2.5,4.1,5.6,4.1h6.4
			c1.6,0,2.8-0.4,3.4-1.2c0.6-0.8,0.6-2,0.1-3.6l-16.3-48.3l2.3-1c8.2-3.6,12.2-10.5,12.2-21.2V32.4c0-16.3-9.6-24.3-29.4-24.3
			h-25.8c-3.2,0-4.5,1.3-4.5,4.5v113.3c0,3.2,1.3,4.5,4.5,4.5h6.6c3.2,0,4.5-1.3,4.5-4.5V79.5z M638.3,66.7h-13.9V21.2h13.9
			c9.6,0,14.5,4.9,14.5,14.5v16.6C652.7,61.9,647.9,66.7,638.3,66.7z M629.9,61.2h8.4c6.5,0,8.9-2.4,8.9-8.9V35.6
			c0-6.5-2.4-8.9-8.9-8.9h-8.4V61.2z"/>
	</g>
	<g>
		<path class="st0" d="M734.9,136h-39.3c-6.3,0-10.1-3.8-10.1-10.1V12.6c0-6.3,3.8-10.1,10.1-10.1h6.6c6.3,0,10.1,3.8,10.1,10.1
			v98.8h22.6c6.3,0,10.1,3.8,10.1,10.1v4.4C745,132.2,741.3,136,734.9,136z M695.7,8.1c-3.2,0-4.5,1.3-4.5,4.5v113.3
			c0,3.2,1.3,4.5,4.5,4.5h39.3c3.2,0,4.5-1.3,4.5-4.5v-4.4c0-3.2-1.3-4.5-4.5-4.5h-28.2V12.6c0-3.2-1.3-4.5-4.5-4.5H695.7z"/>
	</g>
	<g>
		<path class="st2" d="M812.4,136h-6.8c-5.8,0-9.7-3.3-10.6-9.1l-3.1-19.4h-18.7l-3.1,19.4c-0.9,5.8-4.8,9.1-10.6,9.1H754
			c-4.2,0-6.5-1.7-7.6-3.1c-1.2-1.4-2.4-3.9-1.7-8.1l21-113.5c0.9-5.5,4.9-8.8,10.8-8.8h13.2c5.8,0,9.8,3.3,10.8,8.9l21.4,113.4
			c0.7,4.2-0.5,6.7-1.6,8.1C818.9,134.3,816.6,136,812.4,136z M768.6,102h28.1l3.8,24.1c0.5,3.1,2,4.4,5.1,4.4h6.8
			c1.1,0,2.7-0.2,3.4-1.1c0.7-0.9,0.7-2.4,0.5-3.5L794.9,12.4c-0.5-3-2.2-4.3-5.3-4.3h-13.2c-3.1,0-4.8,1.4-5.3,4.3l-21,113.5
			c-0.2,1.1-0.3,2.6,0.5,3.5c0.7,0.9,2.3,1.1,3.4,1.1h5.7c3.1,0,4.6-1.3,5.1-4.4L768.6,102z M794.8,89.9h-24.4l12.2-77.3L794.8,89.9
			z M776.9,84.4h11.4l-5.7-36.3L776.9,84.4z"/>
	</g>
	<g>
		<path class="st1" d="M842.4,133.2h-5.8c-4.8,0-7.3-2.6-7.3-7.3V22.5c0-1.8,0.5-3.1,1.8-4.6c2-2.4,4-5.1,5.5-8.2s3.3-4.8,6.6-4.8
			h0.7c3.7,0,5.8,2.2,5.8,5.8v115.1C849.7,130.7,847.2,133.2,842.4,133.2z"/>
	</g>
	<g>
		<path class="st0" d="M932.7,30.9v76.8c0,19.4-11.5,27-30.7,27h-1.5c-19.2,0-30.7-7.7-30.7-27V30.9c0-19.4,11.5-27,30.7-27h1.5
			C921.2,3.8,932.7,11.5,932.7,30.9z M901.2,22.5c-6.8,0-11,2.6-11,11.7v70.2c0,9.1,4.2,11.7,11,11.7s11-2.6,11-11.7V34.2
			C912.2,25,908,22.5,901.2,22.5z"/>
	</g>
	<g>
		<path class="st2" d="M965.2,133.2h-5.8c-4.8,0-7.3-2.6-7.3-7.3V22.5c0-1.8,0.5-3.1,1.8-4.6c2-2.4,4-5.1,5.5-8.2
			c1.5-3.1,3.3-4.8,6.6-4.8h0.7c3.7,0,5.8,2.2,5.8,5.8v115.1C972.5,130.7,969.9,133.2,965.2,133.2z"/>
	</g>
</g>
</svg>
