<?xml version="1.0" encoding="utf-8"?>
<!-- Generator: Adobe Illustrator 28.0.0, SVG Export Plug-In . SVG Version: 6.00 Build 0)  -->
<svg version="1.1" id="Layer_1" xmlns="http://www.w3.org/2000/svg" xmlns:xlink="http://www.w3.org/1999/xlink" x="0px" y="0px"
	 viewBox="0 0 450 220" style="enable-background:new 0 0 450 220;" xml:space="preserve">
<style type="text/css">
	.st0{fill:#0071CE;}
	.st1{fill:#FFC220;}
</style>
<g>
	<path class="st0" d="M251.6,112.6c0-7.9-3.4-14.8-14.8-14.8c-5.9,0-10.5,1.7-13,3.1l1.8,6.3c2.3-1.5,6-2.7,9.5-2.7
		c5.8,0,6.7,3.3,6.7,5.4v0.5c-12.6,0-20.6,4.3-20.6,13.2c0,5.4,4,10.5,11.1,10.5c4.3,0,8-1.7,10.1-4.5h0.2c0,0,1.4,6,9.4,3.7
		c-0.4-2.5-0.6-5.2-0.6-8.4V112.6z M242.2,120.9c0,0.6-0.1,1.3-0.2,1.9c-0.7,2.4-3.2,4.5-6.3,4.5c-2.6,0-4.7-1.5-4.7-4.6
		c0-4.8,5.3-6.1,11.3-6.1"/>
	<path class="st0" d="M58.6,87c0,0,8.2,33.7,9.5,39.2c1.5,6.4,4.3,8.7,12.3,7.2l5.1-20.9c1.3-5.2,2.2-8.9,3-14.2h0.1
		c0.6,5.3,1.4,9,2.5,14.2c0,0,2.1,9.5,3.2,14.5c1.1,5,4,8.1,11.9,6.4L118.5,87h-9.9l-4.2,20c-1.1,5.8-2.1,10.4-2.9,15.7h-0.1
		c-0.7-5.3-1.6-9.6-2.8-15.3L94.2,87H83.9l-4.7,19.9c-1.3,6.1-2.6,10.9-3.3,16.1h-0.1c-0.8-4.8-1.9-11-3-16.8c0,0-2.8-14.2-3.7-19.1
		"/>
	<path class="st0" d="M146.1,112.6c0-7.9-3.4-14.8-14.8-14.8c-5.8,0-10.5,1.7-13,3.1l1.8,6.3c2.3-1.5,6-2.7,9.5-2.7
		c5.8,0,6.7,3.3,6.7,5.4v0.5c-12.6,0-20.6,4.3-20.6,13.2c0,5.4,4.1,10.5,11.1,10.5c4.4,0,8-1.7,10.2-4.5h0.2c0,0,1.4,6,9.4,3.7
		c-0.4-2.5-0.5-5.2-0.5-8.4V112.6z M136.7,120.9c0,0.6-0.1,1.3-0.2,1.9c-0.7,2.4-3.2,4.5-6.4,4.5c-2.6,0-4.7-1.5-4.7-4.6
		c0-4.8,5.3-6.1,11.3-6.1"/>
	<polygon class="st0" points="151.2,87 151.2,133.3 160.6,133.3 160.6,123.5 160.6,87 	"/>
	<path class="st0" d="M280.5,87v34.2c0,4.7,0.9,8,2.8,10c1.7,1.8,4.4,2.9,7.7,2.9c2.8,0,5.5-0.5,6.8-1l-0.1-7.4
		c-1,0.2-2.1,0.4-3.6,0.4c-3.2,0-4.3-2-4.3-6.3v-13.1h8.2V98h-8.2V87"/>
	<path class="st0" d="M256.2,98.5v34.8h9.7v-17.8c0-1,0.1-1.8,0.2-2.6c0.7-3.8,3.6-6.1,7.7-6.1c1.1,0,1.9,0.1,2.8,0.3v-9.1
		c-0.7-0.1-1.2-0.2-2.1-0.2c-3.6,0-7.8,2.3-9.5,7.4h-0.2v-6.6"/>
	<path class="st0" d="M166.1,98.5v34.8h9.5v-20.4c0-1,0.1-1.9,0.4-2.8c0.8-2.1,2.7-4.5,5.8-4.5c3.8,0,5.6,3.2,5.6,7.9v19.8h9.5
		v-20.7c0-0.9,0.1-2,0.4-2.8c0.8-2.3,2.8-4.2,5.7-4.2c3.9,0,5.7,3.2,5.7,8.6v19.1h9.5v-20.5c0-10.8-5.5-15.1-11.7-15.1
		c-2.7,0-4.9,0.7-6.9,1.9c-1.7,1-3.1,2.4-4.4,4.3H195c-1.5-3.7-5-6.2-9.6-6.2c-5.9,0-8.6,3-10.1,5.5h-0.1v-4.7"/>
	<path class="st1" d="M349,97c1.9,0,3.4-1,3.6-2.2l1.8-20.9c0-2.1-2.4-3.8-5.5-3.8c-3.1,0-5.5,1.7-5.5,3.8l1.9,20.9
		C345.6,96,347.1,97,349,97"/>
	<path class="st1" d="M337.7,103.5c0.9-1.6,0.9-3.4-0.1-4.3l-17.2-12c-1.8-1-4.5,0.2-6,2.8c-1.5,2.6-1.2,5.6,0.5,6.6l19.1,8.8
		C335.1,105.9,336.7,105.1,337.7,103.5"/>
	<path class="st1" d="M360.3,103.5c1,1.6,2.6,2.5,3.8,2l19.1-8.9c1.8-1,2-4,0.5-6.6c-1.5-2.6-4.2-3.9-6-2.8l-17.2,12
		C359.5,100.1,359.4,101.9,360.3,103.5"/>
	<path class="st1" d="M349,123.1c1.9,0,3.4,1,3.6,2.2l1.8,20.9c0,2.1-2.4,3.7-5.5,3.7c-3.1,0-5.5-1.7-5.5-3.7l1.9-20.9
		C345.6,124,347.1,123.1,349,123.1"/>
	<path class="st1" d="M360.3,116.5c1-1.6,2.6-2.5,3.8-2l19.1,8.8c1.8,1,2,4,0.5,6.6c-1.5,2.6-4.2,3.9-6,2.8l-17.2-12
		C359.5,120,359.4,118.1,360.3,116.5"/>
	<path class="st1" d="M337.7,116.5c0.9,1.6,0.9,3.4-0.1,4.3l-17.2,12c-1.8,1-4.5-0.2-6-2.8c-1.5-2.6-1.2-5.6,0.5-6.6l19.1-8.8
		C335.1,114.1,336.7,114.9,337.7,116.5"/>
	<path class="st1" d="M388.7,131h0.2c0.3,0,0.5,0.1,0.5,0.4c0.1,0.3,0.1,0.5,0.2,0.6h0.6c-0.1-0.1-0.1-0.2-0.2-0.6
		c-0.1-0.3-0.2-0.5-0.5-0.5v-0.1c0.3-0.1,0.5-0.3,0.5-0.5c0-0.2-0.1-0.4-0.2-0.5c-0.2-0.1-0.4-0.2-0.8-0.2c-0.4,0-0.7,0-0.9,0.1v2.3
		h0.5V131z M388.7,129.9l0.3,0c0.3,0,0.5,0.2,0.5,0.4c0,0.2-0.2,0.3-0.5,0.3h-0.2V129.9z M389.1,128.4c-1.3,0-2.4,1-2.4,2.3
		c0,1.3,1.1,2.4,2.4,2.4c1.4,0,2.4-1,2.4-2.4C391.4,129.4,390.4,128.4,389.1,128.4 M389.1,128.8c1,0,1.8,0.8,1.8,1.9
		c0,1-0.8,1.9-1.8,1.9c-1,0-1.8-0.8-1.8-1.9C387.2,129.7,388,128.8,389.1,128.8"/>
</g>
</svg>
